<svg xmlns="http://www.w3.org/2000/svg" data-name="Layer 1" viewBox="0 0 32 32"><path fill="#ed456a" d="M26.39,9.44l-.42.74-.25.44-.24.42-1.4,2.45a2,2,0,0,1-1.74,1.01H20a1,1,0,0,0-1,1v15a1,1,0,0,1-1,1H14a1,1,0,0,1-1-1v-15a1,1,0,0,0-1-1H9.66a2,2,0,0,1-1.74-1.01L6.53,11.05l-.24-.43-.26-.45-.42-.73a1.015,1.015,0,0,1-.07-.15V9.28a1.086,1.086,0,0,1-.08-.66c0-.01,0-.01.01-.02.01-.04.01-.07.02-.1a.228.228,0,0,1,.03-.11c.01-.03.02-.05.03-.08a.749.749,0,0,1,.1-.2c.01-.02.03-.04.04-.06a.64.64,0,0,1,.13-.15A1.446,1.446,0,0,1,6,7.73a1.01,1.01,0,0,1,.23-.12.849.849,0,0,1,.24-.08,1.268,1.268,0,0,1,.28-.03h.01a1.07,1.07,0,0,1,.25.03,1.155,1.155,0,0,1,.46.19,1.32,1.32,0,0,1,.4.44l.41.71L8.36,9v.01l.25.43.25.44L9.5,11a1,1,0,0,0,.87.5H21.63a1,1,0,0,0,.87-.5l.64-1.12.26-.44.24-.43h.01l.48-.85a1.287,1.287,0,0,1,1.12-.66h.01A1.3,1.3,0,0,1,26.39,9.44Z"/><path fill="#416fb3" d="M19,21.5v9a1,1,0,0,1-1,1H14a1,1,0,0,1-1-1v-9Z"/><circle cx="30" cy="13" r="1" fill="#57565c"/><circle cx="2" cy="14" r="1" fill="#7f7f7f"/><circle cx="10" cy="30" r="1" fill="#7f7f7f"/><path fill="#82c8ec" d="M23.845,5.607a.5.5,0,0,1-.193-.039l-.3-.127A2.272,2.272,0,0,1,22,2.93a1.277,1.277,0,0,0-.731-1.444l-.314-.134a.5.5,0,0,1,.395-.92l.314.135A2.272,2.272,0,0,1,22.99,3.1a1.272,1.272,0,0,0,.745,1.421l.3.127a.5.5,0,0,1-.193.961Z"/><path fill="#ed456a" d="M7.155,5.607a.5.5,0,0,1-.194-.961l.3-.127a1.265,1.265,0,0,0,.751-1.4l0-.021A2.272,2.272,0,0,1,9.332.567L9.648.432a.5.5,0,0,1,.393.92l-.315.135a1.267,1.267,0,0,0-.74,1.395l0,.021A2.278,2.278,0,0,1,7.65,5.441l-.3.127A.508.508,0,0,1,7.155,5.607Z"/><path fill="#fbde53" d="M3.155,20.607a.5.5,0,0,1-.194-.961l.3-.127a1.265,1.265,0,0,0,.751-1.4l0-.021a2.272,2.272,0,0,1,1.323-2.53l.316-.136a.5.5,0,1,1,.393.92l-.315.135a1.267,1.267,0,0,0-.74,1.395l0,.021a2.278,2.278,0,0,1-1.34,2.539l-.3.127A.508.508,0,0,1,3.155,20.607Z"/><path fill="#55bb8c" d="M5.155,31.607a.5.5,0,0,1-.194-.961l.3-.127a1.265,1.265,0,0,0,.751-1.4l0-.021a2.272,2.272,0,0,1,1.323-2.53l.316-.136a.5.5,0,1,1,.393.92l-.315.135a1.267,1.267,0,0,0-.74,1.395l0,.021a2.278,2.278,0,0,1-1.34,2.539l-.3.127A.508.508,0,0,1,5.155,31.607Z"/><path fill="#fbde53" d="M11.5,3a.5.5,0,0,1-.447-.724l1-2a.5.5,0,0,1,.895.447l-1,2A.5.5,0,0,1,11.5,3Z"/><path fill="#ed456a" d="M9.5,22a.5.5,0,0,1-.447-.724l1-2a.5.5,0,0,1,.895.447l-1,2A.5.5,0,0,1,9.5,22Z"/><path fill="#82c8ec" d="M4.5 14a.5.5 0 0 1-.354-.854l1-1a.5.5 0 0 1 .707.707l-1 1A.5.5 0 0 1 4.5 14zM24.5 26a.5.5 0 0 1-.354-.146l-1-1a.5.5 0 0 1 .707-.707l1 1A.5.5 0 0 1 24.5 26z"/><path fill="#55bb8c" d="M27.5,6a.5.5,0,0,1-.447-.276l-1-2a.5.5,0,1,1,.895-.447l1,2A.5.5,0,0,1,27.5,6Z"/><line x1="6.5" x2="8.5" y1="10.5" y2="9.5" fill="none"/><line x1="25.5" x2="23.5" y1="10.5" y2="9.5" fill="none"/><path fill="#fcc37a" d="M17.5,10v2A1.5,1.5,0,0,1,16,13.5h0A1.5,1.5,0,0,1,14.5,12V10Z"/><circle cx="30" cy="13" r="1" fill="#fbde53"/><circle cx="2" cy="14" r="1" fill="#55bb8c"/><circle cx="10" cy="30" r="1" fill="#82c8ec"/><path fill="#fbde53" d="M25.774,31.65a.5.5,0,0,1-.209-.046l-.3-.137a2.27,2.27,0,0,1-1.262-2.554,1.277,1.277,0,0,0-.684-1.467l-.311-.146a.5.5,0,0,1,.424-.906l.311.146a2.269,2.269,0,0,1,1.239,2.573,1.275,1.275,0,0,0,.7,1.445l.3.137a.5.5,0,0,1-.209.954Z"/><line x1="6.5" x2="8.5" y1="10.5" y2="9.5" fill="none"/><path fill="#ffd9aa" d="M26.39 9.44l-.42.74-.25.44-.22-.12-2-1-.1-.06.24-.43h.01l.48-.85a1.287 1.287 0 0 1 1.12-.66h.01A1.3 1.3 0 0 1 26.39 9.44zM8.61 9.44l-.1.06H8.5l-1.99 1H6.5l-.21.12-.25-.45H6.03l-.41-.73c-.03-.05-.05-.1-.08-.15V9.28a1.259 1.259 0 0 1-.08-.66c0-.01 0-.01.01-.02.01-.04.01-.07.02-.1a.228.228 0 0 1 .03-.11c.01-.03.02-.05.03-.08a.749.749 0 0 1 .1-.2c.01-.02.03-.04.04-.06a.64.64 0 0 1 .13-.15A1.446 1.446 0 0 1 6 7.73a1.01 1.01 0 0 1 .23-.12.849.849 0 0 1 .24-.08 1.268 1.268 0 0 1 .28-.03h.01a1.07 1.07 0 0 1 .25.03 1.155 1.155 0 0 1 .46.19 1.461 1.461 0 0 1 .19.16 1.01 1.01 0 0 1 .22.28l.4.71L8.36 9v.01z"/><path fill="#23579f" d="M16.5,24.5v7h-1v-7a.5.5,0,0,1,1,0Z"/><rect width="6" height="1" x="13" y="21" fill="#23579f"/><polygon fill="#e23342" points="8.86 9.88 6.53 11.05 6.29 10.62 6.03 10.17 6.04 10.17 8.36 9.01 8.61 9.44 8.86 9.88"/><polygon fill="#e23342" points="25.97 10.18 25.72 10.62 25.48 11.04 23.14 9.88 23.4 9.44 23.64 9.01 23.65 9.01 25.97 10.18"/><path fill="#ed456a" d="M26.774,21.65a.5.5,0,0,1-.209-.046l-.3-.137a2.27,2.27,0,0,1-1.262-2.554,1.277,1.277,0,0,0-.684-1.467l-.311-.146a.5.5,0,0,1,.424-.906l.311.146a2.269,2.269,0,0,1,1.239,2.573,1.275,1.275,0,0,0,.7,1.445l.3.137a.5.5,0,0,1-.209.954Z"/><path fill="#ffd9aa" d="M19.5,7.5a1.474,1.474,0,0,1-.01.21,3.5,3.5,0,0,1-6.98.01,1.618,1.618,0,0,1-.01-.22,3.5,3.5,0,0,1,7,0Z"/><path fill="#57565c" d="M19.5,7.5a1.474,1.474,0,0,1-.01.21L19,7.5l-2.86-.81a2,2,0,0,0-1.3.07L13,7.5l-.49.22a1.618,1.618,0,0,1-.01-.22,3.5,3.5,0,0,1,7,0Z"/></svg>